<svg xmlns="http://www.w3.org/2000/svg" xmlns:xlink="http://www.w3.org/1999/xlink" xmlns:lucid="lucid" width="1357.73" height="877.14"><g transform="translate(-201.13604116832153 -202.86180205838696)" lucid:page-tab-id="0_0"><path d="M0 0h1760v1360H0z" fill="#fff"/><path d="M221.14 380h1317.72v643.97H221.14z" stroke="#000" stroke-opacity="0" fill="#fff"/><path d="M221.14 380h1317.72v665.94H221.14z" stroke="#000" stroke-opacity="0" fill="#f6f6f7"/><path d="M396.82 410.58h395.32v601.03H396.82zM973.7 410.58h395.32v601.03h-395.3z" stroke="#000" stroke-opacity="0" fill="#eff0f0"/><path d="M419.73 580.23h350.93v215.83H419.73z" fill="#248814" fill-opacity=".13"/><path d="M419.73 580.23h56v56h-56v-56z" stroke="#fff" stroke-opacity="0" fill="#248814"/><path d="M463.1 602.4c-.14-.16-.33-.25-.55-.25h-5.15v-5.57c-.03-2.54-.96-4.7-2.83-6.4-1.9-1.84-4.15-2.75-6.77-2.75-2.66 0-4.9.83-6.8 2.62-1.9 1.7-2.88 3.87-2.9 6.4v5.66h-5.16c-.25 0-.43.1-.6.26-.15.17-.2.33-.2.58v25.3c0 .4.34.8.8.8h29.58c.47 0 .8-.4.8-.8v-25.3c0-.2-.05-.37-.2-.54zm-23.45-5.9c.03-2.13.8-3.87 2.37-5.3 1.63-1.5 3.53-2.2 5.74-2.2 2.22 0 4.12.76 5.7 2.25 1.54 1.42 2.32 3.2 2.32 5.33v5.57h-16.16zm22.1 30.95H433.7v-23.72h28.02z" stroke="#fff" stroke-opacity="0" fill="#fff"/><path d="M446.93 617.54v6.24h1.6v-6.23c2.13-.4 3.63-2.2 3.63-4.35 0-2.43-1.97-4.4-4.4-4.43-2.2-.03-4.06 1.5-4.44 3.68-.4 2.4 1.2 4.68 3.6 5.1zm.82-7.16c.78 0 1.44.27 2 .82.54.56.82 1.22.8 2 .03 1.54-1.2 2.8-2.74 2.82h-.05c-1.56.12-2.92-1.05-3.04-2.6-.1-1.57 1.06-2.94 2.62-3.04.15-.02.28-.02.43 0z" stroke="#fff" stroke-opacity="0" fill="#fff"/><path d="M221.14 380h1317.72v680H221.14z" stroke="#232f3e" stroke-width="2" fill="#fff" fill-opacity="0"/><path d="M221.14 380h56v56h-56v-56z" stroke="#fff" stroke-opacity="0" fill="#232f3e"/><path d="M239.36 405.87c-.04.48.04.87.16 1.34.13.4.3.7.5 1.07.04.1.08.22.08.34 0 .2-.12.36-.3.46l-.93.62c-.13.08-.25.13-.37.13-.17 0-.33-.06-.45-.2-.2-.2-.37-.43-.54-.7-.15-.25-.28-.53-.44-.86-1.1 1.37-2.63 2.1-4.4 2.06-1.14.06-2.13-.3-2.95-1.08-.77-.8-1.14-1.76-1.1-2.85-.04-1.23.4-2.28 1.36-3.08 1.06-.85 2.3-1.23 3.65-1.16.6 0 1.04.02 1.6.1.6.1 1.12.2 1.74.33v-1.1c.08-.88-.17-1.67-.7-2.37-.74-.56-1.56-.8-2.46-.7-.54 0-1.03.07-1.6.2-.58.13-1.03.3-1.6.5l-.5.2h-.25c-.2 0-.33-.16-.33-.45v-.75c0-.18.05-.34.13-.5.12-.16.24-.26.4-.33.67-.3 1.2-.5 1.9-.67.78-.2 1.48-.3 2.3-.28 1.48-.13 2.8.26 3.9 1.2.94 1.05 1.35 2.28 1.23 3.67zm-6.08 2.28c.58 0 1.07-.1 1.6-.28.58-.2 1.03-.5 1.44-.96.25-.27.4-.56.5-.93.12-.45.16-.84.16-1.3V404c-.54-.1-.95-.17-1.44-.2h-1.4c-.82-.08-1.56.12-2.2.58-.55.45-.8 1.04-.75 1.73-.05.6.1 1.16.52 1.6.45.38 1 .52 1.56.45zm12 1.6c-.2 0-.42-.03-.58-.15-.17-.17-.25-.36-.33-.6l-3.5-11.5-.1-.62c0-.24.1-.37.36-.37h1.47c.2 0 .37.04.58.15.16.18.25.37.3.6l2.5 9.96 2.37-9.93c0-.24.1-.44.3-.6.15-.12.36-.16.57-.15h1.2c.23 0 .4.03.6.15.17.18.25.36.3.6l2.33 9.94 2.55-10c.04-.2.16-.4.32-.58.17-.1.37-.17.58-.14h1.4c.16 0 .32.1.37.3v.31s0 .2-.13.35l-3.6 11.53c-.05.22-.13.42-.3.6-.2.1-.37.14-.57.13H253c-.25.04-.46-.02-.62-.15-.17-.16-.25-.36-.3-.6l-2.3-9.6-2.3 9.6c-.03.24-.1.44-.28.6-.2.13-.4.2-.6.16zm19.2.38c-.8 0-1.5-.07-2.3-.25-.65-.13-1.14-.3-1.7-.6-.22-.1-.38-.23-.47-.42-.07-.14-.1-.28-.1-.43v-.75c0-.3.1-.46.32-.46h.3l.36.16c.57.23 1.02.4 1.6.5.6.14 1.15.2 1.8.2.8.05 1.48-.1 2.18-.5.5-.3.78-.8.74-1.4.04-.4-.12-.76-.37-1.04-.45-.4-.94-.65-1.52-.8l-2.16-.68c-.95-.25-1.73-.73-2.4-1.5-.48-.65-.73-1.35-.73-2.18 0-.6.14-1.08.43-1.6.28-.5.6-.9 1.06-1.22.5-.38.98-.6 1.6-.78.65-.18 1.2-.26 1.88-.25.33-.03.62-.03 1 0l.97.16.83.22.65.26c.17.1.3.22.45.38.1.15.13.3.13.5v.7c0 .32-.12.47-.36.47-.2-.03-.37-.08-.58-.18-.94-.42-1.8-.6-2.87-.58-.7-.04-1.33.1-1.98.4-.5.3-.74.8-.7 1.36 0 .4.12.76.45 1.05.5.4 1 .65 1.6.82l2.1.67c.94.24 1.68.7 2.3 1.44.5.64.7 1.3.7 2.1 0 .63-.13 1.17-.37 1.73-.3.55-.62.95-1.1 1.32-.5.4-1 .66-1.62.84-.73.23-1.4.33-2.13.34zM267.24 417.48c-5.6 3.82-11.36 5.58-18.15 5.56-8.56.05-15.84-2.74-22.17-8.45-.5-.42 0-1 .5-.68 7.06 4.05 14 5.9 22.2 5.9 6.08-.04 11.27-1.1 16.92-3.47.8-.35 1.5.55.7 1.13z" stroke="#fff" stroke-opacity="0" fill="#fff"/><path d="M269.3 415.2c-.64-.82-4.16-.38-5.75-.2-.48 0-.54-.36-.1-.66 2.8-1.98 7.4-1.4 8-.74.58.67-.16 5.28-2.8 7.5-.4.32-.78.13-.6-.3.55-1.52 1.87-4.83 1.25-5.6z" stroke="#fff" stroke-opacity="0" fill="#fff"/><use xlink:href="#a" transform="matrix(1,0,0,1,292.1360411683215,400) translate(0 12.444444444444446)"/><use xlink:href="#b" transform="matrix(1,0,0,1,292.1360411683215,400) translate(39.66666666666667 12.444444444444446)"/><path d="M237.6 505.83h1284.8v540.1H237.6z" stroke="#248814" stroke-width="2" fill="#fff" fill-opacity="0"/><path d="M237.6 505.83h56v56h-56v-56z" stroke="#fff" stroke-opacity="0" fill="#248814"/><path d="M269.37 534.14h-1.18v-1.1c-.13-1.73-1.5-3.08-3.2-3.2-1.9-.13-3.55 1.3-3.68 3.2v1.06h-1.18c-.45 0-.8.36-.8.8v6.13c0 .44.35.8.8.8h9.23c.44 0 .8-.36.8-.8v-6.1c0-.43-.36-.8-.8-.8zm-6.4-1.07c.1-1.02 1-1.76 2-1.67.9.1 1.58.77 1.67 1.67v1.07h-3.72zm5.65 7.08h-7.68v-4.4h7.62z" stroke="#fff" stroke-opacity="0" fill="#fff"/><path d="M279.88 531.58c-.1-2.44-1.6-4.48-3.87-5.3-1.58-.47-3.16-.14-4.4.9-.67-1.45-1.46-2.6-2.58-3.75-3.25-3.35-7.95-4.3-12.2-2.4-4.03 1.9-6.4 5.63-6.53 10.06v.7c-3.42.96-5.67 4.06-5.5 7.63v.63c.37 4.3 3.9 7.53 8.2 7.47h26s7.4-.63 7.4-8.1c.05-3.9-2.65-7.2-6.52-7.85zm-.96 14.4H253c-3.46.04-6.3-2.54-6.58-5.97v-.5c-.17-3.06 1.92-5.72 4.9-6.33.4-.1.64-.46.6-.88-.05-.42-.05-.75 0-1.16.08-3.8 2.12-6.95 5.53-8.6 1.25-.57 2.4-.82 3.83-.84 2.62.08 4.86 1.04 6.7 2.93 1.24 1.3 2.03 2.6 2.62 4.3.04.15.12.3.25.37.37.28.87.2 1.12-.16.83-1.18 2.25-1.68 3.62-1.3 1.78.72 2.86 2.4 2.82 4.32-.08.4.2.82.62.9 3.58.36 6.2 3.54 5.83 7.1-.3 3.14-2.7 5.53-5.83 5.86z" stroke="#fff" stroke-opacity="0" fill="#fff"/><use xlink:href="#c" transform="matrix(1,0,0,1,308.6076401391135,525.8348483727773) translate(0 12.444444444444446)"/><path d="M396.82 462.1h395.32V1020H396.82z" fill="#fff" fill-opacity="0"/><path d="M408.68 462.1h7.9m7.92 0h7.9m7.9 0h7.9m7.92 0h7.9m7.9 0h7.92m7.9 0h7.9m7.92 0h7.9m7.9 0h7.92m7.9 0h7.9m7.92 0h7.9m7.9 0h7.92m7.9 0h7.9m7.92 0h7.9m7.9 0h7.9m7.92 0h7.9m7.9 0h7.92m7.9 0h7.9m7.92 0h7.9m7.9 0h7.92m7.9 0h7.9m7.92 0h7.9m7.9 0h7.92m7.9 0h7.9m7.92 0h7.9m7.9 0h3.96v3.97m0 7.97V482m0 7.98v7.97m0 7.97v7.97m0 7.96v7.97m0 7.97v7.97m0 7.97v7.97m0 8v7.96m0 7.97v7.97m0 7.97v7.97m0 7.97v7.98m0 7.97v7.97m0 7.97v7.96m0 7.97v7.97m0 7.97v7.97m0 7.97v7.98m0 7.97v7.97m0 7.97v7.96m0 7.97V753m0 7.97v7.97m0 7.97v7.98m0 7.97v7.97m0 7.97v7.96m0 7.97v7.97m0 7.97v7.97m0 7.97v7.98m0 7.97v7.97m0 7.97v7.96m0 7.97v7.97m0 7.97v7.97m0 7.97v7.98m0 7.97v7.97m0 7.97v7.96m0 7.97v7.97m0 7.97v7.97m0 7.97v4h-3.95m-7.92 0h-7.9m-7.9 0h-7.92m-7.9 0h-7.9m-7.92 0h-7.9m-7.9 0h-7.92m-7.9 0h-7.9m-7.9 0h-7.92m-7.9 0h-7.9m-7.92 0h-7.9m-7.9 0h-7.92m-7.9 0h-7.9m-7.92 0h-7.9m-7.9 0h-7.92m-7.9 0h-7.9m-7.92 0H551m-7.9 0h-7.92m-7.9 0h-7.9m-7.9 0h-7.92m-7.9 0h-7.9m-7.92 0h-7.9m-7.9 0h-7.92m-7.9 0h-7.9m-7.92 0h-7.9m-7.9 0h-7.92m-7.9 0h-3.96v-4m0-7.96v-7.97m0-7.97v-7.97m0-7.97v-7.97m0-7.98v-7.97m0-7.97v-7.97m0-7.96v-7.97m0-7.97v-7.97m0-7.97v-7.97m0-7.98v-7.97m0-7.97v-7.97m0-7.96v-7.97m0-7.97v-7.97m0-7.97v-7.97m0-7.98v-7.97m0-7.97v-7.97m0-7.96v-7.97m0-7.97v-7.97m0-7.97v-7.97m0-7.98v-7.97m0-7.97v-7.97m0-7.96v-7.97m0-7.97v-7.97m0-7.97v-7.97m0-7.98v-7.97m0-7.97v-7.97m0-7.96v-7.97m0-7.97v-7.97m0-7.97v-7.97m0-8v-7.96m0-7.97v-7.97m0-7.97v-7.97m0-7.97v-7.98m0-7.97v-7.97m0-7.97v-7.96m0-7.97v-3.98h3.96" stroke="#147eba" stroke-width="2" fill="none"/><use xlink:href="#d" transform="matrix(1,0,0,1,396.8231935591314,482.0876775579421) translate(128.8641975308642 12.444444444444446)"/><use xlink:href="#e" transform="matrix(1,0,0,1,396.8231935591314,482.0876775579421) translate(214.5925925925926 12.444444444444446)"/><use xlink:href="#f" transform="matrix(1,0,0,1,396.8231935591314,482.0876775579421) translate(255.94444444444446 12.444444444444446)"/><path d="M973.33 462.1h395.32v561.87H973.33z" fill="#fff" fill-opacity="0"/><path d="M985.2 462.1h7.9m7.9 0h7.9m7.9 0h7.92m7.9 0h7.9m7.92 0h7.9m7.9 0h7.92m7.9 0h7.9m7.92 0h7.9m7.9 0h7.92m7.9 0h7.9m7.92 0h7.9m7.9 0h7.92m7.9 0h7.9m7.9 0h7.92m7.9 0h7.9m7.92 0h7.9m7.9 0h7.92m7.9 0h7.9m7.92 0h7.9m7.9 0h7.92m7.9 0h7.9m7.92 0h7.9m7.9 0h7.92m7.9 0h7.9m7.9 0h3.97v4m0 8.03v8.02m0 8.03v8.03m0 8.04v8.02m0 8.03v8.02m0 8.02v8.03m0 8.03v8.02m0 8.03v8.03m0 8.02v8.03m0 8.03v8.02m0 8.03v8.04m0 8.02v8.03m0 8.02v8.02m0 8.03v8.03m0 8.03v8.02m0 8.03v8.03m0 8.03v8.03m0 8.03v8m0 8.04v8.03m0 8.02v8.02m0 8.03v8.02m0 8.03v8.03m0 8.02v8.03m0 8.03v8.04m0 8.02v8.03m0 8.02v8.02m0 8.03v8.03m0 8.02v8.03m0 8.03v8.02m0 8.03v8.03m0 8.02v8.03m0 8.04v8.02m0 8.03v8.02m0 8.03v8.02m0 8.03v8.03m0 8.02v4.02h-3.96m-7.9 0h-7.92m-7.9 0h-7.9m-7.92 0h-7.9m-7.9 0h-7.92m-7.9 0h-7.9m-7.92 0h-7.9m-7.9 0h-7.9m-7.92 0h-7.9m-7.9 0h-7.92m-7.9 0h-7.9m-7.92 0h-7.9m-7.9 0h-7.92m-7.9 0h-7.9m-7.92 0h-7.9m-7.9 0h-7.92m-7.9 0h-7.9m-7.92 0h-7.9m-7.9 0h-7.9m-7.92 0h-7.9m-7.9 0h-7.92m-7.9 0h-7.9m-7.92 0h-7.9m-7.9 0H1001m-7.9 0h-7.9m-7.92 0h-3.95v-4.02m0-8.02v-8.03m0-8.03v-8.02m0-8.03v-8.03m0-8.04v-8.02m0-8.03v-8.02m0-8.02v-8.03m0-8.03v-8.02m0-8.03v-8.03m0-8.02v-8.03m0-8.03v-8.02m0-8.03v-8.04m0-8.02v-8.03m0-8.02v-8.03m0-8.02v-8.03m0-8.03v-8.02m0-8.03v-8.03m0-8.03v-8.03m0-8.03v-8m0-8.04v-8.03m0-8.02v-8.02m0-8.03v-8.02m0-8.03v-8.03m0-8.03v-8.02m0-8.03v-8.04m0-8.02v-8.03m0-8.02v-8.02m0-8.03v-8.03m0-8.02v-8.03m0-8.03v-8.02m0-8.03v-8.03m0-8.02v-8.03m0-8.04v-8.02m0-8.03v-8.02m0-8.03v-8.02m0-8.03v-4h3.95" stroke="#147eba" stroke-width="2" fill="none"/><use xlink:href="#d" transform="matrix(1,0,0,1,973.3291575367307,482.0876775579421) translate(128.8641975308642 12.444444444444446)"/><use xlink:href="#e" transform="matrix(1,0,0,1,973.3291575367307,482.0876775579421) translate(214.5925925925926 12.444444444444446)"/><use xlink:href="#g" transform="matrix(1,0,0,1,973.3291575367307,482.0876775579421) translate(255.94444444444446 12.444444444444446)"/><path d="M849.8 527.27h65.88v65.88h-65.9v-65.88z" stroke="#fff" stroke-opacity="0" stroke-width="2" fill="#d86613"/><path d="M893.32 561.08c.38 2.37 2.14 4.13 4.5 4.53 3 .5 5.8-1.53 6.26-4.52.52-3-1.5-5.8-4.5-6.28-2.96-.48-5.8 1.54-6.26 4.52h-6.57c-.1-1.7-.47-3.1-1.2-4.65l7.9-6.68c.98.78 2.1 1.18 3.38 1.18 3 0 5.45-2.46 5.45-5.5 0-2.98-2.44-5.44-5.45-5.44-3.04 0-5.5 2.46-5.5 5.5 0 1.1.3 2 .9 2.98l-7.63 6.4c-.98-1.44-2.05-2.54-3.5-3.5-5.9-3.9-13.8-2.33-17.7 3.5-3.9 5.85-2.3 13.76 3.53 17.67 5.83 3.9 13.77 2.32 17.67-3.53l7.64 6.46c-.6.92-.9 1.85-.9 3 0 1.26.4 2.36 1.2 3.37 1.85 2.37 5.28 2.77 7.64.88 2.4-1.85 2.8-5.27.9-7.64-1.84-2.38-5.28-2.77-7.64-.93l-7.9-6.66c.74-1.54 1.12-2.95 1.2-4.66zm5.36-4.57c2.06 0 3.73 1.64 3.73 3.7 0 2.07-1.66 3.7-3.68 3.74-2.06 0-3.73-1.67-3.73-3.74 0-2.02 1.66-3.7 3.68-3.7zm-1.8-16.5c2 0 3.7 1.67 3.7 3.73 0 2.02-1.7 3.7-3.7 3.7-2.06 0-3.74-1.68-3.74-3.7 0-2.06 1.68-3.73 3.74-3.73zm0 33.03c2 0 3.7 1.62 3.7 3.7 0 2.05-1.7 3.68-3.7 3.68-2.06 0-3.74-1.62-3.74-3.68 0-2.07 1.68-3.7 3.74-3.7zm-22.83-1.85c-6.05 0-10.98-4.92-10.98-10.98 0-6.06 4.93-10.98 10.98-10.98 6.05 0 10.98 4.92 10.98 10.98 0 6.06-4.93 10.98-10.98 10.98z" stroke="#fff" stroke-opacity="0" stroke-width="2" fill="#fff"/><use xlink:href="#h" transform="matrix(1,0,0,1,819.7921652559709,602.1521477651723) translate(48.30864197530864 13.61111111111111)"/><path d="M994.45 580h352.6v216.06h-352.6z" fill="#248814" fill-opacity=".13"/><path d="M994.45 580h56v56h-56v-56z" stroke="#fff" stroke-opacity="0" fill="#248814"/><path d="M1037.83 602.18c-.15-.17-.34-.25-.56-.25h-5.15v-5.58c-.03-2.54-.97-4.7-2.84-6.4-1.9-1.84-4.15-2.75-6.77-2.75-2.64 0-4.9.83-6.8 2.62-1.9 1.7-2.86 3.87-2.9 6.4v5.66h-5.14c-.25 0-.44.1-.6.25-.15.17-.2.34-.2.6V628c0 .43.33.8.8.8h29.58c.47 0 .8-.37.8-.8v-25.28c0-.2-.05-.38-.2-.54zm-23.46-5.9c.03-2.13.8-3.88 2.37-5.3 1.62-1.5 3.53-2.2 5.74-2.2 2.22 0 4.12.75 5.7 2.25 1.54 1.4 2.32 3.2 2.32 5.32v5.58h-16.16zm22.1 30.94h-28.03v-23.7h28.02z" stroke="#fff" stroke-opacity="0" fill="#fff"/><path d="M1021.65 617.3v6.25h1.6v-6.23c2.13-.4 3.62-2.2 3.63-4.35 0-2.43-1.97-4.4-4.4-4.43-2.2-.03-4.07 1.5-4.44 3.68-.4 2.4 1.2 4.68 3.6 5.1zm.82-7.15c.78 0 1.44.27 2 .82.54.56.82 1.22.8 2 .03 1.55-1.2 2.8-2.74 2.82h-.06c-1.56.1-2.92-1.06-3.04-2.62-.12-1.56 1.05-2.93 2.6-3.03.16-.02.28-.02.44 0z" stroke="#fff" stroke-opacity="0" fill="#fff"/><path d="M545.04 645.56h676.1v124.67h-676.1z" fill="#fff" fill-opacity="0"/><path d="M552 645.56h5.97m3.98 0h5.96m4 0h5.95m3.98 0h5.97m3.97 0h5.97m3.98 0h5.96m3.98 0h5.96m3.98 0h5.97m3.97 0h5.97m4 0h5.95m3.98 0h5.96m3.97 0h5.97m3.97 0h5.98m3.98 0h5.96m3.98 0h5.96m3.98 0h5.97m3.98 0h5.97m3.98 0H727m3.97 0h5.96m3.98 0h5.98m3.97 0h5.97m3.98 0h5.96m3.98 0h5.96m3.98 0h5.97m3.97 0h5.97m3.97 0h5.96m3.98 0h5.97m3.98 0h5.97m3.97 0h5.96m3.98 0h5.96m3.98 0h5.96m3.98 0h5.97m3.96 0h5.97m3.98 0h5.97m3.98 0h5.97m3.97 0h5.96m3.97 0h5.97m3.98 0h5.96m3.98 0h5.97m3.96 0h5.97m3.97 0h5.97m3.98 0h5.96m4 0h5.96m3.97 0h5.97m3.97 0h5.97m3.98 0h5.96m3.98 0h5.97m3.97 0h5.97m3.98 0h5.96m4 0h5.95m3.98 0h5.97m3.97 0h5.97m3.98 0h5.96m3.98 0h5.96m3.98 0h5.97m3.97 0h5.97m4 0h5.95m3.98 0h5.96m3.97 0h5.97m3.97 0h5.98m3.98 0h5.96m3.98 0h5.96m3.98 0h5.97m3.98 0h5.97m3.98 0h5.96m3.97 0h5.96m3.98 0h5.98m3.97 0h3v3.12m0 4.15v6.24m0 4.15v6.23m0 4.16v6.24m0 4.16v6.23m0 4.16v6.22m0 4.16V711m0 4.17v6.23m0 4.15v6.24m0 4.14v6.24m0 4.15v6.24m0 4.15v6.24m0 4.15v3.13h-3m-3.97 0h-5.97m-3.97 0h-5.96m-3.98 0h-5.97m-3.98 0h-5.97m-3.97 0h-5.96m-3.98 0h-5.96m-3.98 0h-5.96m-3.98 0h-5.97m-3.96 0h-5.97m-3.98 0h-5.97m-3.98 0h-5.96m-4 0h-5.96m-3.97 0h-5.97m-3.98 0h-5.96m-3.98 0h-5.96m-3.98 0h-5.97m-3.97 0h-5.97m-3.98 0h-5.96m-4 0h-5.95m-3.98 0h-5.97m-3.97 0h-5.97m-3.98 0h-5.96m-3.98 0h-5.97m-3.97 0h-5.97m-3.97 0h-5.97m-4 0h-5.95m-3.98 0h-5.97m-3.97 0h-5.97m-3.97 0h-5.98m-3.98 0h-5.96m-3.98 0h-5.97m-3.97 0H900m-3.98 0h-5.97m-3.98 0h-5.96m-3.97 0h-5.97m-3.97 0h-5.98m-3.98 0h-5.96m-3.98 0h-5.96m-3.98 0h-5.97m-3.98 0h-5.97m-3.98 0h-5.96m-3.97 0h-5.96m-3.98 0h-5.98m-3.97 0h-5.97m-3.98 0h-5.96m-3.98 0h-5.96m-3.98 0h-5.97m-3.97 0h-5.97m-3.97 0h-5.96m-3.98 0h-5.97m-3.98 0h-5.97m-3.97 0h-5.96m-3.98 0h-5.96m-3.98 0h-5.96m-3.98 0h-5.97m-3.96 0h-5.97m-3.98 0h-5.97m-3.98 0h-5.96m-4 0h-5.96m-3.97 0h-5.97m-3.98 0h-5.96m-3.98 0h-5.96m-3.98 0h-5.97m-3.97 0h-5.97m-3.98 0h-5.96m-4 0h-5.95m-3.98 0H552m-3.97 0h-3v-3.12m0-4.14v-6.24m0-4.15v-6.24m0-4.15v-6.24m0-4.15v-6.25m0-4.15v-6.23m0-4.16v-6.22m0-4.16v-6.23m0-4.17V684m0-4.16v-6.23m0-4.15v-6.23m0-4.15v-6.24m0-4.15v-3.12h3" stroke="#d86613" stroke-width="2" fill="none"/><path d="M855.1 645.56h56v56h-56v-56z" stroke="#fff" stroke-opacity="0" fill="#d86613"/><path d="M874.77 669.3l-1.14 1.12 2.33 2.34H863.1v1.6h12.86l-2.33 2.34 1.14 1.13 4.27-4.27-4.27-4.27zM903.1 672.76H890.2l2.33-2.34-1.14-1.13-4.26 4.26 4.27 4.27 1.15-1.13-2.33-2.34h12.87v-1.6zM882.3 656.2v12.86h1.6V656.2l2.33 2.32 1.13-1.13-4.27-4.3-4.28 4.3 1.13 1.12 2.34-2.33zM883.9 690.93v-12.87h-1.6v12.87l-2.35-2.33-1.13 1.13 4.27 4.28 4.26-4.27-1.13-1.13-2.34 2.33z" stroke="#fff" stroke-opacity="0" fill="#fff"/><use xlink:href="#i" transform="matrix(1,0,0,1,545.0434189231876,716.5603616962669) translate(294.9012345679012 12.444444444444446)"/><use xlink:href="#j" transform="matrix(1,0,0,1,545.0434189231876,716.5603616962669) translate(331.1975308641975 12.444444444444446)"/><path d="M629.33 724.4h-53.35v-53h53.35zm-50.58-2.76h47.8v-47.5h-47.8z" stroke="#fff" stroke-opacity="0" fill="#d86613"/><path d="M583.6 664.95h2.77v7.8h-2.77v-7.8zM592.27 664.95h2.76v7.8h-2.76v-7.8zM600.94 664.95h2.76v7.8h-2.76v-7.8zM609.62 664.95h2.76v7.8h-2.76v-7.8zM618.3 664.95h2.75v7.8h-2.76v-7.8zM583.6 723.03h2.77v7.8h-2.77v-7.8zM592.27 723.03h2.76v7.8h-2.76v-7.8zM600.94 723.03h2.76v7.8h-2.76v-7.8zM609.62 723.03h2.76v7.8h-2.76v-7.8zM618.3 723.03h2.75v7.8h-2.76v-7.8zM627.95 679.3h7.86v2.74h-7.85v-2.75zM627.95 687.9h7.86v2.75h-7.85v-2.75zM627.95 696.52h7.86v2.75h-7.85v-2.75zM627.95 705.14h7.86v2.75h-7.85v-2.76zM627.95 713.75h7.86v2.74h-7.85v-2.75zM569.5 679.3h7.86v2.74h-7.86v-2.75zM569.5 687.9h7.86v2.75h-7.86v-2.75zM569.5 696.52h7.86v2.75h-7.86v-2.75zM569.5 705.14h7.86v2.75h-7.86v-2.76zM569.5 713.75h7.86v2.74h-7.86v-2.75z" stroke="#fff" stroke-opacity="0" fill="#d86613"/><path d="M545.04 730.84h116.04v20H545.04z" stroke="#000" stroke-opacity="0" fill="#fff" fill-opacity="0"/><use xlink:href="#k" transform="matrix(1,0,0,1,550.0434189231876,735.8369989507848) translate(24.614197530864196 12.444444444444446)"/><use xlink:href="#l" transform="matrix(1,0,0,1,550.0434189231876,735.8369989507848) translate(20.228395061728392 31.111111111111118)"/><path d="M1195.85 724.4h-53.35v-53h53.35zm-50.58-2.76h47.8v-47.5h-47.8z" stroke="#fff" stroke-opacity="0" fill="#d86613"/><path d="M1150.12 664.95h2.76v7.8h-2.76v-7.8zM1158.78 664.95h2.77v7.8h-2.77v-7.8zM1167.46 664.95h2.76v7.8h-2.76v-7.8zM1176.13 664.95h2.77v7.8h-2.77v-7.8zM1184.8 664.95h2.77v7.8h-2.76v-7.8zM1150.12 723.03h2.76v7.8h-2.76v-7.8zM1158.78 723.03h2.77v7.8h-2.77v-7.8zM1167.46 723.03h2.76v7.8h-2.76v-7.8zM1176.13 723.03h2.77v7.8h-2.77v-7.8zM1184.8 723.03h2.77v7.8h-2.76v-7.8zM1194.47 679.3h7.86v2.74h-7.86v-2.75zM1194.47 687.9h7.86v2.75h-7.86v-2.75zM1194.47 696.52h7.86v2.75h-7.86v-2.75zM1194.47 705.14h7.86v2.75h-7.86v-2.76zM1194.47 713.75h7.86v2.74h-7.86v-2.75zM1136.02 679.3h7.86v2.74h-7.86v-2.75zM1136.02 687.9h7.86v2.75h-7.86v-2.75zM1136.02 696.52h7.86v2.75h-7.86v-2.75zM1136.02 705.14h7.86v2.75h-7.86v-2.76zM1136.02 713.75h7.86v2.74h-7.86v-2.75z" stroke="#fff" stroke-opacity="0" fill="#d86613"/><path d="M1111.56 730.84h116.04v20h-116.04z" stroke="#000" stroke-opacity="0" fill="#fff" fill-opacity="0"/><use xlink:href="#k" transform="matrix(1,0,0,1,1116.5614798756792,735.8369989507848) translate(24.614197530864196 12.444444444444446)"/><use xlink:href="#l" transform="matrix(1,0,0,1,1116.5614798756792,735.8369989507848) translate(20.228395061728392 31.111111111111118)"/><path d="M849.3 560.2H614.64a12 12 0 0 0-12 12v92.25" stroke="#666" fill="none"/><path d="M849.8 560.7h-.52v-1h.5zM603.15 664.95h-1v-.5h1z" stroke="#666" stroke-width=".05" fill="#666"/><path d="M1050.52 580.63H1180v17.43h-129.48z" stroke="#000" stroke-opacity="0" fill="#fff" fill-opacity="0"/><use xlink:href="#m" transform="matrix(1,0,0,1,1055.5203034479246,585.630146091256) translate(0 10.666666666666668)"/><use xlink:href="#n" transform="matrix(1,0,0,1,1055.5203034479246,585.630146091256) translate(61.259259259259274 10.666666666666668)"/><path d="M808.86 397.65h148.7v26.84h-148.7z" stroke="#000" stroke-opacity="0" fill="#fff" fill-opacity="0"/><use xlink:href="#o" transform="matrix(1,0,0,1,813.8583222047009,402.65397098930157) translate(21.601851851851848 12.444444444444446)"/><use xlink:href="#p" transform="matrix(1,0,0,1,813.8583222047009,402.65397098930157) translate(84.64506172839506 12.444444444444446)"/><use xlink:href="#q" transform="matrix(1,0,0,1,813.8583222047009,402.65397098930157) translate(44.48148148148148 31.111111111111118)"/><path d="M849.8 331.77h66.84v65.88H849.8v-65.88z" stroke="#fff" stroke-opacity="0" fill="#693cc5"/><path d="M874.12 369.5c1.18.4 2.24.6 3.5.64.78.06 1.5-.13 2.14-.6.5-.47.77-1.06.73-1.75.06-.73-.17-1.37-.7-1.88-.7-.46-1.44-.64-2.28-.58-1 0-1.86.06-2.85.18v-1.24l.35-5.43h6.7v1.46h-5.2l-.23 3.7c.6-.12 1.14-.17 1.77-.17 1.18-.08 2.2.27 3.1 1.02.8.77 1.2 1.75 1.12 2.85.04 1.14-.4 2.14-1.3 2.87-1.02.8-2.15 1.16-3.45 1.1-1.27 0-2.34-.2-3.5-.73zM888.68 364.2H889c1.1-.06 2.08.25 2.93.95.76.7 1.13 1.6 1.07 2.63.03 1.13-.43 2.1-1.32 2.83-1.04.78-2.18 1.13-3.48 1.06-1.24 0-2.3-.23-3.42-.72v-1.45c1.15.4 2.2.6 3.42.63.8.07 1.5-.14 2.15-.6.53-.46.8-1.07.75-1.76 0-1.46-.93-2.2-2.8-2.2-.63 0-1.17.03-1.8.1v-1.2l3.87-4.15h-5.4v-1.5h7.5v1.45z" stroke="#fff" stroke-opacity="0" fill="#fff"/><path d="M883.22 381.4c-.18 0-.32-.03-.46-.13-3.03-1.75-5.88-2.83-9.34-3.5-1.9-.33-8-1.77-8-6.15 0-2 .77-3.32 1.77-4.98 1.52-2.24 2.3-4.52 2.4-7.22 0-2.6-.67-4.78-2.13-6.95-.2-.33-.18-.72.07-1.04l1.43-1.76c.28-.32.75-.42 1.14-.2 1.93 1.1 3.8 1.6 6.03 1.63 2.46.03 4.56-.62 6.55-2.05.32-.23.75-.23 1.04 0 2.03 1.43 4.13 2.08 6.6 2.05 2.2-.03 4.08-.55 6-1.62.4-.23.86-.13 1.15.2l1.42 1.75c.24.3.28.7.06 1.04-1.46 2.14-2.1 4.35-2.13 6.95 0 3.12 1.28 5.27 2.42 7.22 1 1.66 1.78 3 1.78 4.98 0 4.38-6.13 5.82-8.02 6.14-3.44.68-6.3 1.72-9.32 3.5-.14.1-.28.14-.46.14zm-13.9-29.42c1.4 2.34 2.04 4.65 2.04 7.35 0 3.6-1.46 6.1-2.68 8.1-.9 1.55-1.5 2.6-1.5 4.1 0 3.1 5.46 4.25 6.53 4.44 3.53.7 6.38 1.76 9.48 3.5 3.1-1.74 6-2.8 9.48-3.5 1.1-.2 6.55-1.33 6.55-4.45 0-1.5-.6-2.54-1.52-4.1-1.17-1.98-2.67-4.48-2.67-8.1.05-2.7.7-5 2.1-7.34l-.56-.68c-2 1-3.95 1.5-6.23 1.5-2.63.02-4.87-.6-7.12-2.02-2.2 1.43-4.5 2.04-7.12 2-2.28 0-4.2-.48-6.24-1.48z" stroke="#fff" stroke-opacity="0" fill="#fff"/><path d="M883.23 386.67c-.22 0-.4-.04-.58-.17-3.16-2.24-6.23-3.6-10.02-4.4-7.34-1.3-11.7-5.3-11.7-10.57.08-2.68.8-4.96 2.35-7.2.98-1.62 1.78-3.03 1.78-4.96-.08-2.68-1.2-4.92-3.25-6.72-.4-.26-.48-.83-.16-1.23.04 0 .04-.04.04-.04 0-.1 5.25-6.28 6.46-7.86.13-.26.4-.4.67-.4.32 0 .54.1.76.3 1.7 2 3.88 3.1 6.55 3.22 2.5 0 4.46-1.1 6.33-3.5.36-.4.98-.5 1.38-.14.06.04.1.08.14.13 1.87 2.46 3.83 3.5 6.33 3.5 2.67-.12 4.85-1.22 6.54-3.2.24-.22.46-.3.77-.3.27 0 .53.13.67.4 1.2 1.57 6.4 7.76 6.45 7.85.13.18.22.4.17.66 0 .26-.13.44-.3.6-2.06 1.8-3.17 4.05-3.26 6.73 0 1.93.86 3.34 1.8 4.96 1.55 2.24 2.26 4.52 2.35 7.2 0 5.27-4.36 9.26-11.7 10.58-3.8.8-6.87 2.1-10.03 4.4-.13.1-.3.17-.5.17zm-19.55-34.8c2.14 2.1 3.2 4.56 3.25 7.5 0 2.4-1.02 4.17-2.04 5.88-1.08 1.9-2.1 3.6-2.1 6.32 0 6.4 7.8 8.3 10.15 8.74 3.87.8 7.03 2.1 10.28 4.3 3.2-2.2 6.37-3.5 10.24-4.3 2.36-.43 10.16-2.32 10.16-8.73 0-2.72-1.03-4.4-2.1-6.32-1.02-1.75-2.05-3.5-2.05-5.88.05-2.94 1.12-5.4 3.25-7.5-1.2-1.4-3.87-4.62-5.3-6.42-2 1.94-4.36 2.94-7.12 3.03-2.88 0-5.33-1.18-7.1-3.38-1.84 2.2-4.3 3.38-7.18 3.38-2.76-.1-5.12-1.1-7.13-3.03-1.3 1.8-4 5-5.22 6.4z" stroke="#fff" stroke-opacity="0" fill="#fff"/><path d="M882.94 484.12v21.32h-.02v21.33M882.94 484.13v-.5" stroke="#666" fill="none"/><path d="M883.42 527.27h-1v-.52h1z" stroke="#666" stroke-width=".05" fill="#666"/><path d="M302.3 540.25h99.4v18.58h-99.4z" stroke="#000" stroke-opacity="0" fill="#fff" fill-opacity="0"/><path d="M746.4 255.8h124.8a12 12 0 0 1 12 12v63.47" stroke="#666" fill="none"/><path d="M746.4 256.3h-.5v-1h.5zM883.7 331.77h-1v-.52h1z" stroke="#666" stroke-width=".05" fill="#666"/><path d="M999.5 255.8H895.2a12 12 0 0 0-12 12v63.47" stroke="#666" fill="none"/><path d="M1000 256.3h-.5v-1h.5zM883.7 331.77h-1v-.52h1z" stroke="#666" stroke-width=".05" fill="#666"/><path d="M476.42 598.06h96.47v18.6H476.4zM477.1 580.77h134.5v17.15H477.1z" stroke="#000" stroke-opacity="0" fill="#fff" fill-opacity="0"/><use xlink:href="#m" transform="matrix(1,0,0,1,482.08879251420296,585.7727624239128) translate(0 10.666666666666668)"/><use xlink:href="#n" transform="matrix(1,0,0,1,482.08879251420296,585.7727624239128) translate(61.259259259259274 10.666666666666668)"/><path d="M916.18 560.2h241a12 12 0 0 1 12 12v92.25" stroke="#666" fill="none"/><path d="M916.2 560.7h-.52v-1h.5zM1169.67 664.95h-1v-.5h1z" stroke="#666" stroke-width=".05" fill="#666"/><path d="M413.3 889.5h373.96v99.45H413.3z" fill="#147eba" fill-opacity=".13"/><path d="M413.3 889.5h56v56h-56v-56z" stroke="#fff" stroke-opacity="0" fill="#147eba"/><path d="M456.68 911.67c-.16-.17-.35-.25-.56-.25h-5.15v-5.58c-.03-2.53-.97-4.7-2.84-6.4-1.9-1.83-4.15-2.75-6.77-2.75-2.65 0-4.9.82-6.8 2.6-1.9 1.72-2.87 3.88-2.9 6.42v5.66h-5.15c-.24 0-.43.08-.6.25-.14.16-.2.33-.2.58v25.3c0 .42.34.8.8.8h29.58c.47 0 .82-.38.82-.8v-25.3c0-.2-.07-.36-.22-.53zm-23.47-5.9c.05-2.13.83-3.88 2.4-5.3 1.6-1.5 3.5-2.2 5.73-2.2 2.2 0 4.1.75 5.7 2.25 1.53 1.4 2.3 3.2 2.3 5.32v5.58H433.2zm22.1 30.94h-28V913h28z" stroke="#fff" stroke-opacity="0" fill="#fff"/><path d="M440.5 926.8v6.24h1.6v-6.22c2.12-.4 3.62-2.2 3.63-4.36 0-2.43-1.98-4.4-4.42-4.42-2.2-.03-4.04 1.5-4.4 3.67-.42 2.4 1.2 4.7 3.6 5.1zm.8-7.16c.8 0 1.45.27 2 .83.56.55.83 1.2.82 2 .02 1.54-1.2 2.8-2.75 2.82h-.06c-1.55.1-2.9-1.07-3.02-2.63-.12-1.56 1.05-2.92 2.6-3.03h.43z" stroke="#fff" stroke-opacity="0" fill="#fff"/><path d="M621.2 939.72h-2v-1h2zm7.93 0h-3.97v-1h3.97zm7.94 0h-3.97v-1h3.97zm7.95 0h-3.98v-1h3.98zm7.94 0H649v-1h3.96zm7.94 0h-3.97v-1h3.97zm7.94 0h-3.97v-1h3.97zm7.94 0h-3.97v-1h3.98zm7.94 0h-3.97v-1h3.97zm7.94 0h-3.97v-1h3.96zm7.94 0h-3.97v-1h3.97zm7.94 0h-3.97v-1h3.97zm7.94 0h-3.97v-1h3.98zm7.94 0h-3.97v-1h3.97zm7.94 0h-3.97v-1h3.96zm7.94 0h-3.97v-1h3.97zm7.94 0h-3.97v-1h3.97zm7.94 0h-3.97v-1h3.98zm7.94 0h-3.97v-1h3.97zm7.94 0h-3.97v-1h3.96zm7.94 0h-3.97v-1H780zm7.94 0h-3.97v-1h3.97zm7.95 0h-4v-1h4zm7.93 0h-3.97v-1h3.97zm7.94 0h-3.97v-1h3.97zm7.94 0h-3.96v-1h3.97zm7.95 0h-3.97v-1h3.97zm7.94 0h-3.98v-1h3.97zm97.86-2.74h-3.97v-1h3.96zm7.95 0h-3.96v-1h3.97zm7.96 0h-3.98v-1h3.98zm7.94 0h-3.97v-1h3.97zm7.95 0h-3.97v-1h3.97zm7.95 0h-3.97v-1h3.97zm7.95 0h-3.98v-1h3.98zm7.94 0h-3.98v-1h3.97zm7.94 0h-3.97v-1h3.97zm7.95 0h-4v-1h4zm7.94 0h-3.98v-1h3.98zm7.94 0h-3.97v-1h3.98zm7.95 0h-3.97v-1h3.97zm7.95 0h-3.98v-1h3.98zm7.95 0h-3.98v-1h3.98zm7.94 0h-3.97v-1h3.97zm7.95 0h-3.97v-1h3.97zm7.95 0h-3.98v-1h3.97zm7.95 0h-3.98v-1h3.98zm7.94 0h-3.97v-1h3.96zm7.95 0h-3.96v-1h3.97zm7.96 0h-3.98v-1h3.98zm7.94-.02h-3.97v-1h3.97zm7.95 0h-3.97v-1h3.97zm7.95 0h-3.97v-1h3.97zm5.96 0h-2v-1h2z" stroke="#666" stroke-width=".05" fill="#666"/><path d="M619.22 939.72h-.5v-1h.5z" fill="#666"/><path d="M619.25 939.75h-.57v-1.05h.57zm-.52-1v.95h.47v-.95z" stroke="#666" stroke-width=".05" fill="#666"/><path d="M1144.93 936.46l-14.27 4.64v-9.27z" fill="#666"/><path d="M1146.54 936.46l-16.38 5.33v-10.66zm-15.38 3.95l12.15-3.94-12.14-3.94z" stroke="#666" stroke-width=".05" fill="#666"/><use xlink:href="#r" transform="matrix(1,0,0,1,837.277373086714,919.1765162046796) translate(0.005000000000002558 12.444444444444446)"/><use xlink:href="#s" transform="matrix(1,0,0,1,837.277373086714,919.1765162046796) translate(6.983395061728402 31.111111111111118)"/><path d="M469.14 902.86h99.4v13.94h-99.4z" stroke="#000" stroke-opacity="0" fill="#fff" fill-opacity="0"/><path d="M469.14 889.9h118.8v15h-118.8z" stroke="#000" stroke-opacity="0" fill="#fff" fill-opacity="0"/><use xlink:href="#t" transform="matrix(1,0,0,1,474.1361043012481,894.8951385837285) translate(0 10.666666666666668)"/><use xlink:href="#n" transform="matrix(1,0,0,1,474.1361043012481,894.8951385837285) translate(22.888888888888893 10.666666666666668)"/><path d="M978.62 889.5h373.56v99.45H978.62z" fill="#147eba" fill-opacity=".13"/><path d="M978.62 889.5h56v56h-56v-56z" stroke="#fff" stroke-opacity="0" fill="#147eba"/><path d="M1022 911.67c-.15-.17-.34-.25-.56-.25h-5.15v-5.58c-.04-2.53-.97-4.7-2.85-6.4-1.9-1.83-4.15-2.75-6.77-2.75-2.65 0-4.9.82-6.8 2.6-1.9 1.72-2.87 3.88-2.9 6.42v5.66h-5.15c-.25 0-.43.08-.6.25-.15.16-.2.33-.2.58v25.3c0 .42.33.8.8.8h29.58c.48 0 .82-.38.82-.8v-25.3c0-.2-.06-.36-.22-.53zm-23.46-5.9c.03-2.13.8-3.88 2.37-5.3 1.63-1.5 3.54-2.2 5.75-2.2 2.22 0 4.12.75 5.7 2.25 1.54 1.4 2.32 3.2 2.32 5.32v5.58H998.5zm22.1 30.94H992.6V913h28.03z" stroke="#fff" stroke-opacity="0" fill="#fff"/><path d="M1005.82 926.8v6.24h1.6v-6.22c2.13-.4 3.62-2.2 3.63-4.36 0-2.43-1.97-4.4-4.4-4.42-2.2-.03-4.06 1.5-4.44 3.67-.4 2.4 1.2 4.7 3.62 5.1zm.82-7.16c.78 0 1.44.27 2 .83.54.55.82 1.2.8 2 .03 1.54-1.2 2.8-2.74 2.82h-.06c-1.56.1-2.92-1.07-3.04-2.63-.1-1.56 1.05-2.92 2.6-3.03h.44z" stroke="#fff" stroke-opacity="0" fill="#fff"/><path d="M1033.32 910.95h99.4v13.94h-99.4z" stroke="#000" stroke-opacity="0" fill="#fff" fill-opacity="0"/><path d="M1033.32 898h118.8v14.98h-118.8z" stroke="#000" stroke-opacity="0" fill="#fff" fill-opacity="0"/><use xlink:href="#t" transform="matrix(1,0,0,1,1038.3231084457152,902.9854120824651) translate(0 10.666666666666668)"/><use xlink:href="#n" transform="matrix(1,0,0,1,1038.3231084457152,902.9854120824651) translate(22.888888888888893 10.666666666666668)"/><path d="M883.2 425v127.56a.46.46 0 0 1-.44.46" stroke="#666" fill="none"/><path d="M883.7 425h-1v-.5h1zM879.26 552.52h3.5v1h-3.5z" stroke="#666" stroke-width=".05" fill="#666"/><path d="M587.14 907.15V862a12 12 0 0 1 12-12h566.97a12 12 0 0 1 12 12v42.4" stroke="#666" fill="none"/><path d="M587.64 907.65h-1v-.5h1zM1178.6 904.9h-1v-.52h1z" stroke="#666" stroke-width=".05" fill="#666"/><path d="M603.06 751.34v33.02a12 12 0 0 0 12 12h267.18" stroke="#666" fill="none"/><path d="M603.56 751.35h-1v-.5h1z" stroke="#666" stroke-width=".05" fill="#666"/><path d="M882.22 796.36h.52M883.24 796.36h274.34a12 12 0 0 0 12-12v-33.02M883.25 796.36h-.5" stroke="#666" fill="none"/><path d="M1170.08 751.35h-1v-.5h1z" stroke="#666" stroke-width=".05" fill="#666"/><path d="M555.57 907.65h63.14v63.14h-63.13v-63.15z" stroke="#fff" stroke-opacity="0" stroke-width="2" fill="#3b48cc"/><path d="M587.16 930.38c-5.66 0-11.4 1.48-11.4 4.3v19.18c0 2.83 5.72 4.3 11.38 4.3 5.64 0 11.36-1.47 11.36-4.3V934.7c0-2.84-5.7-4.32-11.34-4.32zm0 26.1c-6.27 0-9.7-1.68-9.7-2.62v-4.03c2.1 1.28 5.88 1.95 9.68 1.95 3.77 0 7.57-.67 9.66-1.95v4.03c.02.94-3.4 2.6-9.64 2.6zm0-6.4c-6.27 0-9.68-1.7-9.68-2.6v-4.04c2.1 1.25 5.9 1.92 9.68 1.92 3.78 0 7.57-.67 9.66-1.92v4.03c0 .9-3.4 2.6-9.66 2.6zm0-6.4c-6.27 0-9.68-1.68-9.68-2.6v-4.06c2.1 1.28 5.9 1.95 9.68 1.95 3.78 0 7.57-.67 9.66-1.95v4.06c0 .9-3.4 2.6-9.66 2.6zm0-6.4c-6.27 0-9.7-1.73-9.7-2.6 0-.88 3.36-2.6 9.68-2.6 6.3 0 9.68 1.72 9.68 2.6 0 .87-3.4 2.6-9.66 2.6z" stroke="#fff" stroke-opacity="0" stroke-width="2" fill="#fff"/><path d="M607.75 923.82c.47 0 .86-.38.86-.85v-1.84c0-.47-.38-.85-.85-.85h-41.22c-.47 0-.86.38-.86.85v1.84c0 .45.4.82.86.82 1.03.1 1.76 1 1.68 2.04-.08.9-.77 1.58-1.67 1.68-.47 0-.86.38-.86.85V943c0 .48.4.85.86.85h7.56v-1.67h-3.36v-.85h3.35v-1.7h-4.22c-.47 0-.86.38-.86.85v1.7h-1.67V929.1c1.2-.36 2-1.2 2.4-2.38.56-1.9-.5-3.92-2.4-4.48v-.28h39.58v.28c-1.16.38-1.97 1.18-2.32 2.33-.6 1.9.44 3.9 2.33 4.53v13.08h-.86v-1.7c0-.47-.38-.85-.8-.85h-5.08v1.7h4.2v.85h-4.2v1.67h7.55c.47 0 .86-.37.86-.85v-14.63c0-.47-.38-.85-.85-.85-1-.12-1.76-1.04-1.63-2.08.12-.87.77-1.53 1.63-1.62z" stroke="#fff" stroke-opacity="0" stroke-width="2" fill="#fff"/><path d="M586.72 928.7v-4.2c0-.47-.38-.85-.84-.85h-5.9c-.46 0-.84.38-.84.84v5.04h1.68v-4.2h4.22v3.36zM595.14 929.54v-5.05c0-.47-.38-.85-.84-.85h-5.9c-.46 0-.84.38-.84.84v4.2h1.68v-3.37h4.2v4.2zM600.2 936.27v1.7h2.5c.48 0 .86-.38.86-.85V924.5c0-.48-.38-.85-.85-.85h-5.88c-.46 0-.84.37-.84.84v5.9h1.68v-5.06h4.2v10.93zM572.4 925.34h4.22v5.05h1.68v-5.9c0-.48-.38-.85-.84-.85h-5.9c-.46 0-.84.37-.84.84v12.62c0 .47.38.84.84.84h2.53v-1.7h-1.7z" stroke="#fff" stroke-opacity="0" stroke-width="2" fill="#fff"/><use xlink:href="#u" transform="matrix(1,0,0,1,525.569948032261,979.7924639406261) translate(5.6499999999999915 14.4)"/><use xlink:href="#v" transform="matrix(1,0,0,1,525.569948032261,979.7924639406261) translate(56.55 14.4)"/><path d="M1146.54 904.9h63.14v63.13h-63.14V904.9z" stroke="#fff" stroke-opacity="0" stroke-width="2" fill="#3b48cc"/><path d="M1178.14 927.62c-5.66 0-11.4 1.48-11.4 4.3v19.18c0 2.83 5.7 4.3 11.37 4.3 5.65 0 11.38-1.47 11.38-4.3v-19.17c0-2.83-5.7-4.3-11.34-4.3zm0 26.1c-6.28 0-9.7-1.68-9.7-2.62v-4.03c2.1 1.28 5.88 1.94 9.67 1.94 3.8 0 7.58-.65 9.67-1.93v4.03c.03.94-3.38 2.6-9.63 2.6zm0-6.4c-6.28 0-9.7-1.7-9.7-2.6v-4.04c2.13 1.25 5.9 1.92 9.7 1.92 3.77 0 7.56-.67 9.66-1.92v4.03c0 .9-3.4 2.62-9.66 2.62zm0-6.4c-6.28 0-9.7-1.68-9.7-2.6v-4.06c2.13 1.28 5.9 1.95 9.7 1.95 3.77 0 7.56-.66 9.66-1.94v4.06c0 .9-3.4 2.6-9.66 2.6zm0-6.4c-6.28 0-9.7-1.73-9.7-2.6 0-.88 3.35-2.6 9.67-2.6 6.3 0 9.7 1.72 9.7 2.6 0 .87-3.4 2.6-9.66 2.6z" stroke="#fff" stroke-opacity="0" stroke-width="2" fill="#fff"/><path d="M1198.72 921.06c.47 0 .86-.38.86-.85v-1.83c0-.47-.4-.85-.86-.85h-41.22c-.47 0-.85.38-.85.85v1.84c0 .46.38.83.85.83 1.04.1 1.77 1.02 1.68 2.05-.1.9-.77 1.58-1.68 1.68-.47 0-.85.38-.85.85v14.64c0 .48.38.85.85.85h7.56v-1.68h-3.35v-.85h3.36v-1.7h-4.2c-.48 0-.87.38-.87.85v1.7h-1.68v-13.08c1.2-.36 2.02-1.2 2.4-2.38.56-1.9-.5-3.92-2.4-4.48v-.28h39.6v.28c-1.17.38-2 1.18-2.33 2.33-.6 1.9.42 3.92 2.3 4.54v13.08h-.85v-1.7c0-.47-.4-.85-.82-.85h-5.06v1.7h4.2v.85h-4.2v1.67h7.55c.47 0 .86-.38.86-.86V925.6c0-.46-.4-.84-.86-.84-1-.12-1.76-1.04-1.63-2.08.12-.87.76-1.53 1.62-1.62z" stroke="#fff" stroke-opacity="0" stroke-width="2" fill="#fff"/><path d="M1177.7 925.94v-4.2c0-.47-.4-.85-.85-.85h-5.9c-.46 0-.83.37-.83.83v5.05h1.68v-4.2h4.2v3.36zM1186.1 926.78v-5.05c0-.46-.37-.84-.83-.84h-5.9c-.46 0-.84.37-.84.83v4.2h1.7v-3.36h4.2v4.2zM1191.17 933.5v1.7h2.52c.45 0 .83-.37.83-.84v-12.63c0-.47-.38-.84-.84-.84h-5.9c-.47 0-.85.36-.85.83v5.9h1.68v-5.05h4.22v10.93zM1163.38 922.58h4.2v5.05h1.7v-5.9c0-.47-.4-.84-.85-.84h-5.9c-.45 0-.83.36-.83.83v12.63c0 .47.38.84.84.84h2.52v-1.7h-1.68z" stroke="#fff" stroke-opacity="0" stroke-width="2" fill="#fff"/><use xlink:href="#u" transform="matrix(1,0,0,1,1116.5439800053646,977.0322511787082) translate(3.549999999999997 14.4)"/><use xlink:href="#w" transform="matrix(1,0,0,1,1116.5439800053646,977.0322511787082) translate(54.45 14.4)"/><path d="M882.74 796.86v52.64M882.74 796.87v-.5M882.74 849.5v.5" stroke="#666" fill="none"/><path d="M707.67 243.95h5.27v2.63h-5.27v-2.63zM689.5 243.95h15.54v2.63H689.5v-2.63zM719.53 262.4h19.73v2.63h-19.73v-2.64zM711.63 262.4h5.27v2.63h-5.27v-2.64z" stroke="#fff" stroke-opacity="0" stroke-width="3" fill="#1c7b68"/><path d="M698.44 270.3c-.33 0-.6-.1-.82-.32l-11.86-9.86c-.33-.26-.5-.64-.5-1.05 0-.4.17-.76.5-1l11.86-9.43c.6-.48 1.4-.38 1.85.2.2.24.32.5.32.8v3.52h26.27c.7 0 1.3.6 1.3 1.33v2.1l8.67-6.76-8.67-7.05v2.45c0 .73-.6 1.33-1.3 1.33h-10.5v-2.62h9.25V240c-.1-.53.16-1 .65-1.2.5-.22 1.03-.16 1.4.2l12.1 9.86c.53.44.64 1.3.2 1.86-.1.07-.16.13-.2.2l-12.1 9.45c-.42.32-.9.38-1.4.13-.43-.2-.7-.67-.65-1.17v-3.5h-26.38c-.7 0-1.3-.62-1.3-1.34v-2.1l-8.46 6.74 8.46 7.05v-2.48c0-.73.6-1.33 1.3-1.33H709V265h-9.2v3.95c0 .54-.33.98-.82 1.2-.16.1-.33.13-.54.13z" stroke="#fff" stroke-opacity="0" stroke-width="3" fill="#1c7b68"/><path d="M737.4 288.75h-48.9c-4.68 0-8.5-3.82-8.5-8.5v-48.9c0-4.67 3.82-8.5 8.5-8.5h48.9c4.66 0 8.5 3.83 8.5 8.5v48.9c0 4.68-3.84 8.5-8.5 8.5zm-48.9-63.25c-3.23 0-5.86 2.63-5.86 5.86v48.9c0 3.22 2.63 5.85 5.86 5.85h48.9c3.22 0 5.85-2.62 5.85-5.85v-48.9c0-3.22-2.63-5.85-5.86-5.85z" stroke="#fff" stroke-opacity="0" stroke-width="3" fill="#1c7b68"/><g><use xlink:href="#x" transform="matrix(1,0,0,1,650,297.74819794155485) translate(-2.9000000000000057 14.4)"/><use xlink:href="#y" transform="matrix(1,0,0,1,650,297.74819794155485) translate(23.025 36)"/><use xlink:href="#z" transform="matrix(1,0,0,1,650,297.74819794155485) translate(67.975 36)"/></g><path d="M1027.67 243.95h5.27v2.63h-5.27v-2.63zM1009.5 243.95h15.54v2.63h-15.53v-2.63zM1039.53 262.4h19.73v2.63h-19.73v-2.64zM1031.63 262.4h5.27v2.63h-5.27v-2.64z" stroke="#fff" stroke-opacity="0" stroke-width="3" fill="#1c7b68"/><path d="M1018.44 270.3c-.33 0-.6-.1-.82-.32l-11.86-9.86c-.33-.26-.5-.64-.5-1.05 0-.4.17-.76.5-1l11.86-9.43c.6-.48 1.4-.38 1.85.2.2.24.32.5.32.8v3.52h26.27c.7 0 1.3.6 1.3 1.33v2.1l8.67-6.76-8.67-7.05v2.45c0 .73-.6 1.33-1.3 1.33h-10.5v-2.62h9.25V240c-.1-.53.16-1 .65-1.2.5-.22 1.03-.16 1.4.2l12.1 9.86c.53.44.64 1.3.2 1.86-.1.07-.16.13-.2.2l-12.1 9.45c-.42.32-.9.38-1.4.13-.43-.2-.7-.67-.65-1.17v-3.5h-26.38c-.7 0-1.3-.62-1.3-1.34v-2.1l-8.46 6.74 8.46 7.05v-2.48c0-.73.6-1.33 1.3-1.33H1029V265h-9.2v3.95c0 .54-.33.98-.82 1.2-.16.1-.33.13-.54.13z" stroke="#fff" stroke-opacity="0" stroke-width="3" fill="#1c7b68"/><path d="M1057.4 288.75h-48.9c-4.68 0-8.5-3.82-8.5-8.5v-48.9c0-4.67 3.82-8.5 8.5-8.5h48.9c4.66 0 8.5 3.83 8.5 8.5v48.9c0 4.68-3.84 8.5-8.5 8.5zm-48.9-63.25c-3.23 0-5.86 2.63-5.86 5.86v48.9c0 3.22 2.63 5.85 5.86 5.85h48.9c3.22 0 5.85-2.62 5.85-5.85v-48.9c0-3.22-2.63-5.85-5.86-5.85z" stroke="#fff" stroke-opacity="0" stroke-width="3" fill="#1c7b68"/><g><use xlink:href="#A" transform="matrix(1,0,0,1,970,297.74819794155485) translate(17.224999999999994 14.4)"/><use xlink:href="#B" transform="matrix(1,0,0,1,970,297.74819794155485) translate(68.82499999999999 14.4)"/><use xlink:href="#z" transform="matrix(1,0,0,1,970,297.74819794155485) translate(45.5 36)"/></g><defs><path fill="#666" d="M199 0l-22-63H83L61 0H9l90-248h61L250 0h-51zm-33-102l-36-108c-10 38-24 72-36 108h72" id="C"/><path fill="#666" d="M275 0h-61l-44-196L126 0H64L0-248h53L97-49l45-199h58l43 199 44-199h52" id="D"/><path fill="#666" d="M169-182c-1-43-94-46-97-3 18 66 151 10 154 114 3 95-165 93-204 36-6-8-10-19-12-30l50-8c3 46 112 56 116 5-17-69-150-10-154-114-4-87 153-88 188-35 5 8 8 18 10 28" id="E"/><g id="a"><use transform="matrix(0.04320987654320988,0,0,0.04320987654320988,0,0)" xlink:href="#C"/><use transform="matrix(0.04320987654320988,0,0,0.04320987654320988,10.327160493827162,0)" xlink:href="#D"/><use transform="matrix(0.04320987654320988,0,0,0.04320987654320988,24.97530864197531,0)" xlink:href="#E"/></g><path fill="#666" d="M67-125c0 53 21 87 73 88 37 1 54-22 65-47l45 17C233-25 199 4 140 4 58 4 20-42 15-125 8-235 124-281 211-232c18 10 29 29 36 50l-46 12c-8-25-30-41-62-41-52 0-71 34-72 86" id="F"/><path fill="#666" d="M25 0v-261h50V0H25" id="G"/><path fill="#666" d="M110-194c64 0 96 36 96 99 0 64-35 99-97 99-61 0-95-36-95-99 0-62 34-99 96-99zm-1 164c35 0 45-28 45-65 0-40-10-65-43-65-34 0-45 26-45 65 0 36 10 65 43 65" id="H"/><path fill="#666" d="M85 4C-2 5 27-109 22-190h50c7 57-23 150 33 157 60-5 35-97 40-157h50l1 190h-47c-2-12 1-28-3-38-12 25-28 42-61 42" id="I"/><path fill="#666" d="M88-194c31-1 46 15 58 34l-1-101h50l1 261h-48c-2-10 0-23-3-31C134-8 116 4 84 4 32 4 16-41 15-95c0-56 19-97 73-99zm17 164c33 0 40-30 41-66 1-37-9-64-41-64s-38 30-39 65c0 43 13 65 39 65" id="J"/><g id="b"><use transform="matrix(0.04320987654320988,0,0,0.04320987654320988,0,0)" xlink:href="#F"/><use transform="matrix(0.04320987654320988,0,0,0.04320987654320988,11.19135802469136,0)" xlink:href="#G"/><use transform="matrix(0.04320987654320988,0,0,0.04320987654320988,15.512345679012347,0)" xlink:href="#H"/><use transform="matrix(0.04320987654320988,0,0,0.04320987654320988,24.97530864197531,0)" xlink:href="#I"/><use transform="matrix(0.04320987654320988,0,0,0.04320987654320988,34.43827160493827,0)" xlink:href="#J"/></g><path fill="#666" d="M147 0H94L2-248h55l64 206c17-72 42-137 63-206h54" id="K"/><path fill="#666" d="M24-248c93 1 206-16 204 79-1 75-69 88-152 82V0H24v-248zm52 121c47 0 100 7 100-41 0-47-54-39-100-39v80" id="L"/><g id="c"><use transform="matrix(0.04320987654320988,0,0,0.04320987654320988,0,0)" xlink:href="#K"/><use transform="matrix(0.04320987654320988,0,0,0.04320987654320988,10.370370370370372,0)" xlink:href="#L"/><use transform="matrix(0.04320987654320988,0,0,0.04320987654320988,20.740740740740744,0)" xlink:href="#F"/></g><path fill="#666" d="M128 0H69L1-190h53L99-40l48-150h52" id="M"/><path fill="#666" d="M133-34C117-15 103 5 69 4 32 3 11-16 11-54c-1-60 55-63 116-61 1-26-3-47-28-47-18 1-26 9-28 27l-52-2c7-38 36-58 82-57s74 22 75 68l1 82c-1 14 12 18 25 15v27c-30 8-71 5-69-32zm-48 3c29 0 43-24 42-57-32 0-66-3-65 30 0 17 8 27 23 27" id="N"/><path fill="#666" d="M25-224v-37h50v37H25zM25 0v-190h50V0H25" id="O"/><path fill="#666" d="M135-194c52 0 70 43 70 98 0 56-19 99-73 100-30 1-46-15-58-35L72 0H24l1-261h50v104c11-23 29-37 60-37zM114-30c31 0 40-27 40-66 0-37-7-63-39-63s-41 28-41 65c0 36 8 64 40 64" id="P"/><path fill="#666" d="M115-3C79 11 28 4 28-45v-112H4v-33h27l15-45h31v45h36v33H77v99c-1 23 16 31 38 25v30" id="Q"/><path fill="#666" d="M123 10C108 53 80 86 19 72V37c35 8 53-11 59-39L3-190h52l48 148c12-52 28-100 44-148h51" id="R"/><g id="d"><use transform="matrix(0.04320987654320988,0,0,0.04320987654320988,0,0)" xlink:href="#C"/><use transform="matrix(0.04320987654320988,0,0,0.04320987654320988,10.629629629629632,0)" xlink:href="#M"/><use transform="matrix(0.04320987654320988,0,0,0.04320987654320988,19.271604938271608,0)" xlink:href="#N"/><use transform="matrix(0.04320987654320988,0,0,0.04320987654320988,27.913580246913583,0)" xlink:href="#O"/><use transform="matrix(0.04320987654320988,0,0,0.04320987654320988,32.23456790123457,0)" xlink:href="#G"/><use transform="matrix(0.04320987654320988,0,0,0.04320987654320988,36.55555555555556,0)" xlink:href="#N"/><use transform="matrix(0.04320987654320988,0,0,0.04320987654320988,45.19753086419754,0)" xlink:href="#P"/><use transform="matrix(0.04320987654320988,0,0,0.04320987654320988,54.66049382716049,0)" xlink:href="#O"/><use transform="matrix(0.04320987654320988,0,0,0.04320987654320988,58.98148148148148,0)" xlink:href="#G"/><use transform="matrix(0.04320987654320988,0,0,0.04320987654320988,63.30246913580247,0)" xlink:href="#O"/><use transform="matrix(0.04320987654320988,0,0,0.04320987654320988,67.62345679012346,0)" xlink:href="#Q"/><use transform="matrix(0.04320987654320988,0,0,0.04320987654320988,72.76543209876543,0)" xlink:href="#R"/></g><path fill="#666" d="M210 0H11v-37l134-170H24v-41h178v36L68-41h142V0" id="S"/><path fill="#666" d="M135-194c87-1 58 113 63 194h-50c-7-57 23-157-34-157-59 0-34 97-39 157H25l-1-190h47c2 12-1 28 3 38 12-26 28-41 61-42" id="T"/><path fill="#666" d="M185-48c-13 30-37 53-82 52C43 2 14-33 14-96s30-98 90-98c62 0 83 45 84 108H66c0 31 8 55 39 56 18 0 30-7 34-22zm-45-69c5-46-57-63-70-21-2 6-4 13-4 21h74" id="U"/><g id="e"><use transform="matrix(0.04320987654320988,0,0,0.04320987654320988,0,0)" xlink:href="#S"/><use transform="matrix(0.04320987654320988,0,0,0.04320987654320988,9.462962962962964,0)" xlink:href="#H"/><use transform="matrix(0.04320987654320988,0,0,0.04320987654320988,18.925925925925927,0)" xlink:href="#T"/><use transform="matrix(0.04320987654320988,0,0,0.04320987654320988,28.388888888888893,0)" xlink:href="#U"/></g><use transform="matrix(0.04320987654320988,0,0,0.04320987654320988,0,0)" xlink:href="#C" id="f"/><path fill="#666" d="M182-130c37 4 62 22 62 59C244 23 116-4 24 0v-248c84 5 203-23 205 63 0 31-19 50-47 55zM76-148c40-3 101 13 101-30 0-44-60-28-101-31v61zm0 110c48-3 116 14 116-37 0-48-69-32-116-35v72" id="V"/><use transform="matrix(0.04320987654320988,0,0,0.04320987654320988,0,0)" xlink:href="#V" id="g"/><path fill="#666" d="M205 0l-28-72H64L36 0H1l101-248h38L239 0h-34zm-38-99l-47-123c-12 45-31 82-46 123h93" id="W"/><path fill="#666" d="M30 0v-248h33v221h125V0H30" id="X"/><path fill="#666" d="M160-131c35 5 61 23 61 61C221 17 115-2 30 0v-248c76 3 177-17 177 60 0 33-19 50-47 57zm-97-11c50-1 110 9 110-42 0-47-63-36-110-37v79zm0 115c55-2 124 14 124-45 0-56-70-42-124-44v89" id="Y"/><g id="h"><use transform="matrix(0.04320987654320988,0,0,0.04320987654320988,0,0)" xlink:href="#W"/><use transform="matrix(0.04320987654320988,0,0,0.04320987654320988,10.370370370370372,0)" xlink:href="#X"/><use transform="matrix(0.04320987654320988,0,0,0.04320987654320988,19.01234567901235,0)" xlink:href="#Y"/></g><path fill="#666" d="M84 4C-5 8 30-112 23-190h32v120c0 31 7 50 39 49 72-2 45-101 50-169h31l1 190h-30c-1-10 1-25-2-33-11 22-28 36-60 37" id="Z"/><path fill="#666" d="M59-47c-2 24 18 29 38 22v24C64 9 27 4 27-40v-127H5v-23h24l9-43h21v43h35v23H59v120" id="aa"/><path fill="#666" d="M100-194c62-1 85 37 85 99 1 63-27 99-86 99S16-35 15-95c0-66 28-99 85-99zM99-20c44 1 53-31 53-75 0-43-8-75-51-75s-53 32-53 75 10 74 51 75" id="ab"/><g id="i"><use transform="matrix(0.04320987654320988,0,0,0.04320987654320988,0,0)" xlink:href="#W"/><use transform="matrix(0.04320987654320988,0,0,0.04320987654320988,10.370370370370372,0)" xlink:href="#Z"/><use transform="matrix(0.04320987654320988,0,0,0.04320987654320988,19.01234567901235,0)" xlink:href="#aa"/><use transform="matrix(0.04320987654320988,0,0,0.04320987654320988,23.333333333333336,0)" xlink:href="#ab"/></g><path fill="#666" d="M185-189c-5-48-123-54-124 2 14 75 158 14 163 119 3 78-121 87-175 55-17-10-28-26-33-46l33-7c5 56 141 63 141-1 0-78-155-14-162-118-5-82 145-84 179-34 5 7 8 16 11 25" id="ac"/><path fill="#666" d="M96-169c-40 0-48 33-48 73s9 75 48 75c24 0 41-14 43-38l32 2c-6 37-31 61-74 61-59 0-76-41-82-99-10-93 101-131 147-64 4 7 5 14 7 22l-32 3c-4-21-16-35-41-35" id="ad"/><path fill="#666" d="M141-36C126-15 110 5 73 4 37 3 15-17 15-53c-1-64 63-63 125-63 3-35-9-54-41-54-24 1-41 7-42 31l-33-3c5-37 33-52 76-52 45 0 72 20 72 64v82c-1 20 7 32 28 27v20c-31 9-61-2-59-35zM48-53c0 20 12 33 32 33 41-3 63-29 60-74-43 2-92-5-92 41" id="ae"/><path fill="#666" d="M24 0v-261h32V0H24" id="af"/><path fill="#666" d="M24-231v-30h32v30H24zM24 0v-190h32V0H24" id="ag"/><path fill="#666" d="M117-194c89-4 53 116 60 194h-32v-121c0-31-8-49-39-48C34-167 62-67 57 0H25l-1-190h30c1 10-1 24 2 32 11-22 29-35 61-36" id="ah"/><path fill="#666" d="M177-190C167-65 218 103 67 71c-23-6-38-20-44-43l32-5c15 47 100 32 89-28v-30C133-14 115 1 83 1 29 1 15-40 15-95c0-56 16-97 71-98 29-1 48 16 59 35 1-10 0-23 2-32h30zM94-22c36 0 50-32 50-73 0-42-14-75-50-75-39 0-46 34-46 75s6 73 46 73" id="ai"/><g id="j"><use transform="matrix(0.04320987654320988,0,0,0.04320987654320988,0,0)" xlink:href="#ac"/><use transform="matrix(0.04320987654320988,0,0,0.04320987654320988,10.370370370370372,0)" xlink:href="#ad"/><use transform="matrix(0.04320987654320988,0,0,0.04320987654320988,18.148148148148152,0)" xlink:href="#ae"/><use transform="matrix(0.04320987654320988,0,0,0.04320987654320988,26.790123456790127,0)" xlink:href="#af"/><use transform="matrix(0.04320987654320988,0,0,0.04320987654320988,30.203703703703713,0)" xlink:href="#ag"/><use transform="matrix(0.04320987654320988,0,0,0.04320987654320988,33.61728395061729,0)" xlink:href="#ah"/><use transform="matrix(0.04320987654320988,0,0,0.04320987654320988,42.25925925925927,0)" xlink:href="#ai"/></g><path fill="#666" d="M233-177c-1 41-23 64-60 70L243 0h-38l-65-103H63V0H30v-248c88 3 205-21 203 71zM63-129c60-2 137 13 137-47 0-61-80-42-137-45v92" id="aj"/><path fill="#666" d="M100-194c63 0 86 42 84 106H49c0 40 14 67 53 68 26 1 43-12 49-29l28 8c-11 28-37 45-77 45C44 4 14-33 15-96c1-61 26-98 85-98zm52 81c6-60-76-77-97-28-3 7-6 17-6 28h103" id="ak"/><path fill="#666" d="M101-234c-31-9-42 10-38 44h38v23H63V0H32v-167H5v-23h27c-7-52 17-82 69-68v24" id="al"/><path fill="#666" d="M114-163C36-179 61-72 57 0H25l-1-190h30c1 12-1 29 2 39 6-27 23-49 58-41v29" id="am"/><path fill="#666" d="M179-190L93 31C79 59 56 82 12 73V49c39 6 53-20 64-50L1-190h34L92-34l54-156h33" id="an"/><g id="k"><use transform="matrix(0.04320987654320988,0,0,0.04320987654320988,0,0)" xlink:href="#aj"/><use transform="matrix(0.04320987654320988,0,0,0.04320987654320988,11.19135802469136,0)" xlink:href="#ak"/><use transform="matrix(0.04320987654320988,0,0,0.04320987654320988,19.833333333333336,0)" xlink:href="#al"/><use transform="matrix(0.04320987654320988,0,0,0.04320987654320988,24.154320987654323,0)" xlink:href="#ag"/><use transform="matrix(0.04320987654320988,0,0,0.04320987654320988,27.567901234567906,0)" xlink:href="#ah"/><use transform="matrix(0.04320987654320988,0,0,0.04320987654320988,36.20987654320988,0)" xlink:href="#ak"/><use transform="matrix(0.04320987654320988,0,0,0.04320987654320988,44.851851851851855,0)" xlink:href="#am"/><use transform="matrix(0.04320987654320988,0,0,0.04320987654320988,49.99382716049383,0)" xlink:href="#an"/></g><path fill="#666" d="M33 0v-248h34V0H33" id="ao"/><path fill="#666" d="M135-143c-3-34-86-38-87 0 15 53 115 12 119 90S17 21 10-45l28-5c4 36 97 45 98 0-10-56-113-15-118-90-4-57 82-63 122-42 12 7 21 19 24 35" id="ap"/><g id="l"><use transform="matrix(0.04320987654320988,0,0,0.04320987654320988,0,0)" xlink:href="#ao"/><use transform="matrix(0.04320987654320988,0,0,0.04320987654320988,4.320987654320988,0)" xlink:href="#ah"/><use transform="matrix(0.04320987654320988,0,0,0.04320987654320988,12.962962962962964,0)" xlink:href="#ap"/><use transform="matrix(0.04320987654320988,0,0,0.04320987654320988,20.740740740740744,0)" xlink:href="#aa"/><use transform="matrix(0.04320987654320988,0,0,0.04320987654320988,25.06172839506173,0)" xlink:href="#ae"/><use transform="matrix(0.04320987654320988,0,0,0.04320987654320988,33.70370370370371,0)" xlink:href="#ah"/><use transform="matrix(0.04320987654320988,0,0,0.04320987654320988,42.345679012345684,0)" xlink:href="#ad"/><use transform="matrix(0.04320987654320988,0,0,0.04320987654320988,50.12345679012346,0)" xlink:href="#ak"/><use transform="matrix(0.04320987654320988,0,0,0.04320987654320988,58.76543209876544,0)" xlink:href="#ap"/></g><path fill="#666" d="M76-208v77h127v40H76V0H24v-248h183v40H76" id="aq"/><path fill="#666" d="M135-150c-39-12-60 13-60 57V0H25l-1-190h47c2 13-1 29 3 40 6-28 27-53 61-41v41" id="ar"/><g id="m"><use transform="matrix(0.03703703703703704,0,0,0.03703703703703704,0,0)" xlink:href="#aq"/><use transform="matrix(0.03703703703703704,0,0,0.03703703703703704,8.111111111111112,0)" xlink:href="#ar"/><use transform="matrix(0.03703703703703704,0,0,0.03703703703703704,13.296296296296298,0)" xlink:href="#H"/><use transform="matrix(0.03703703703703704,0,0,0.03703703703703704,21.407407407407412,0)" xlink:href="#T"/><use transform="matrix(0.03703703703703704,0,0,0.03703703703703704,29.518518518518526,0)" xlink:href="#Q"/><use transform="matrix(0.03703703703703704,0,0,0.03703703703703704,33.92592592592594,0)" xlink:href="#U"/><use transform="matrix(0.03703703703703704,0,0,0.03703703703703704,41.333333333333336,0)" xlink:href="#T"/><use transform="matrix(0.03703703703703704,0,0,0.03703703703703704,49.44444444444446,0)" xlink:href="#J"/></g><g id="n"><use transform="matrix(0.03703703703703704,0,0,0.03703703703703704,0,0)" xlink:href="#E"/><use transform="matrix(0.03703703703703704,0,0,0.03703703703703704,8.88888888888889,0)" xlink:href="#I"/><use transform="matrix(0.03703703703703704,0,0,0.03703703703703704,17,0)" xlink:href="#P"/><use transform="matrix(0.03703703703703704,0,0,0.03703703703703704,25.111111111111114,0)" xlink:href="#T"/><use transform="matrix(0.03703703703703704,0,0,0.03703703703703704,33.22222222222223,0)" xlink:href="#U"/><use transform="matrix(0.03703703703703704,0,0,0.03703703703703704,40.62962962962963,0)" xlink:href="#Q"/></g><path fill="#666" d="M54-142c48-35 137-8 131 61C196 18 31 33 14-55l32-4c7 23 22 37 52 37 35-1 51-22 54-58 4-55-73-65-99-34H22l8-134h141v27H59" id="as"/><path fill="#666" d="M126-127c33 6 58 20 58 59 0 88-139 92-164 29-3-8-5-16-6-25l32-3c6 27 21 44 54 44 32 0 52-15 52-46 0-38-36-46-79-43v-28c39 1 72-4 72-42 0-27-17-43-46-43-28 0-47 15-49 41l-32-3c6-42 35-63 81-64 48-1 79 21 79 65 0 36-21 52-52 59" id="at"/><g id="o"><use transform="matrix(0.04320987654320988,0,0,0.04320987654320988,0,0)" xlink:href="#aj"/><use transform="matrix(0.04320987654320988,0,0,0.04320987654320988,11.19135802469136,0)" xlink:href="#ab"/><use transform="matrix(0.04320987654320988,0,0,0.04320987654320988,19.833333333333336,0)" xlink:href="#Z"/><use transform="matrix(0.04320987654320988,0,0,0.04320987654320988,28.47530864197531,0)" xlink:href="#aa"/><use transform="matrix(0.04320987654320988,0,0,0.04320987654320988,32.7962962962963,0)" xlink:href="#ak"/><use transform="matrix(0.04320987654320988,0,0,0.04320987654320988,41.43827160493827,0)" xlink:href="#as"/><use transform="matrix(0.04320987654320988,0,0,0.04320987654320988,50.08024691358024,0)" xlink:href="#at"/></g><path fill="#666" d="M30-248c118-7 216 8 213 122C240-48 200 0 122 0H30v-248zM63-27c89 8 146-16 146-99s-60-101-146-95v194" id="au"/><path fill="#666" d="M190 0L58-211 59 0H30v-248h39L202-35l-2-213h31V0h-41" id="av"/><g id="p"><use transform="matrix(0.04320987654320988,0,0,0.04320987654320988,0,0)" xlink:href="#au"/><use transform="matrix(0.04320987654320988,0,0,0.04320987654320988,11.19135802469136,0)" xlink:href="#av"/><use transform="matrix(0.04320987654320988,0,0,0.04320987654320988,22.38271604938272,0)" xlink:href="#ac"/></g><path fill="#666" d="M85-194c31 0 48 13 60 33l-1-100h32l1 261h-30c-2-10 0-23-3-31C134-8 116 4 85 4 32 4 16-35 15-94c0-66 23-100 70-100zm9 24c-40 0-46 34-46 75 0 40 6 74 45 74 42 0 51-32 51-76 0-42-9-74-50-73" id="aw"/><g id="q"><use transform="matrix(0.04320987654320988,0,0,0.04320987654320988,0,0)" xlink:href="#aj"/><use transform="matrix(0.04320987654320988,0,0,0.04320987654320988,11.19135802469136,0)" xlink:href="#ak"/><use transform="matrix(0.04320987654320988,0,0,0.04320987654320988,19.833333333333336,0)" xlink:href="#ad"/><use transform="matrix(0.04320987654320988,0,0,0.04320987654320988,27.611111111111114,0)" xlink:href="#ab"/><use transform="matrix(0.04320987654320988,0,0,0.04320987654320988,36.25308641975309,0)" xlink:href="#am"/><use transform="matrix(0.04320987654320988,0,0,0.04320987654320988,41.39506172839506,0)" xlink:href="#aw"/></g><path fill="#666" d="M106-169C34-169 62-67 57 0H25v-261h32l-1 103c12-21 28-36 61-36 89 0 53 116 60 194h-32v-121c2-32-8-49-39-48" id="ax"/><g id="r"><use transform="matrix(0.04320987654320988,0,0,0.04320987654320988,0,0)" xlink:href="#ac"/><use transform="matrix(0.04320987654320988,0,0,0.04320987654320988,10.370370370370372,0)" xlink:href="#an"/><use transform="matrix(0.04320987654320988,0,0,0.04320987654320988,18.148148148148152,0)" xlink:href="#ah"/><use transform="matrix(0.04320987654320988,0,0,0.04320987654320988,26.790123456790127,0)" xlink:href="#ad"/><use transform="matrix(0.04320987654320988,0,0,0.04320987654320988,34.567901234567906,0)" xlink:href="#ax"/><use transform="matrix(0.04320987654320988,0,0,0.04320987654320988,43.20987654320988,0)" xlink:href="#am"/><use transform="matrix(0.04320987654320988,0,0,0.04320987654320988,48.351851851851855,0)" xlink:href="#ab"/><use transform="matrix(0.04320987654320988,0,0,0.04320987654320988,56.99382716049384,0)" xlink:href="#ah"/><use transform="matrix(0.04320987654320988,0,0,0.04320987654320988,65.63580246913581,0)" xlink:href="#ab"/><use transform="matrix(0.04320987654320988,0,0,0.04320987654320988,74.27777777777779,0)" xlink:href="#Z"/><use transform="matrix(0.04320987654320988,0,0,0.04320987654320988,82.91975308641976,0)" xlink:href="#ap"/></g><path fill="#666" d="M115-194c55 1 70 41 70 98S169 2 115 4C84 4 66-9 55-30l1 105H24l-1-265h31l2 30c10-21 28-34 59-34zm-8 174c40 0 45-34 45-75s-6-73-45-74c-42 0-51 32-51 76 0 43 10 73 51 73" id="ay"/><g id="s"><use transform="matrix(0.04320987654320988,0,0,0.04320987654320988,0,0)" xlink:href="#aj"/><use transform="matrix(0.04320987654320988,0,0,0.04320987654320988,11.19135802469136,0)" xlink:href="#ak"/><use transform="matrix(0.04320987654320988,0,0,0.04320987654320988,19.833333333333336,0)" xlink:href="#ay"/><use transform="matrix(0.04320987654320988,0,0,0.04320987654320988,28.47530864197531,0)" xlink:href="#af"/><use transform="matrix(0.04320987654320988,0,0,0.04320987654320988,31.888888888888893,0)" xlink:href="#ag"/><use transform="matrix(0.04320987654320988,0,0,0.04320987654320988,35.302469135802475,0)" xlink:href="#ad"/><use transform="matrix(0.04320987654320988,0,0,0.04320987654320988,43.080246913580254,0)" xlink:href="#ae"/><use transform="matrix(0.04320987654320988,0,0,0.04320987654320988,51.72222222222223,0)" xlink:href="#aa"/><use transform="matrix(0.04320987654320988,0,0,0.04320987654320988,56.043209876543216,0)" xlink:href="#ag"/><use transform="matrix(0.04320987654320988,0,0,0.04320987654320988,59.4567901234568,0)" xlink:href="#ab"/><use transform="matrix(0.04320987654320988,0,0,0.04320987654320988,68.09876543209877,0)" xlink:href="#ah"/></g><path fill="#666" d="M24-248c120-7 223 5 221 122C244-46 201 0 124 0H24v-248zM76-40c74 7 117-18 117-86 0-67-45-88-117-82v168" id="az"/><g id="t"><use transform="matrix(0.03703703703703704,0,0,0.03703703703703704,0,0)" xlink:href="#az"/><use transform="matrix(0.03703703703703704,0,0,0.03703703703703704,9.592592592592593,0)" xlink:href="#V"/></g><g id="u"><use transform="matrix(0.05,0,0,0.05,0,0)" xlink:href="#aj"/><use transform="matrix(0.05,0,0,0.05,12.950000000000001,0)" xlink:href="#ak"/><use transform="matrix(0.05,0,0,0.05,22.950000000000003,0)" xlink:href="#aw"/><use transform="matrix(0.05,0,0,0.05,32.95,0)" xlink:href="#ag"/><use transform="matrix(0.05,0,0,0.05,36.900000000000006,0)" xlink:href="#ap"/></g><path fill="#666" d="M30-248c87 1 191-15 191 75 0 78-77 80-158 76V0H30v-248zm33 125c57 0 124 11 124-50 0-59-68-47-124-48v98" id="aA"/><path fill="#666" d="M210-169c-67 3-38 105-44 169h-31v-121c0-29-5-50-35-48C34-165 62-65 56 0H25l-1-190h30c1 10-1 24 2 32 10-44 99-50 107 0 11-21 27-35 58-36 85-2 47 119 55 194h-31v-121c0-29-5-49-35-48" id="aB"/><g id="v"><use transform="matrix(0.05,0,0,0.05,0,0)" xlink:href="#aA"/><use transform="matrix(0.05,0,0,0.05,12,0)" xlink:href="#am"/><use transform="matrix(0.05,0,0,0.05,17.95,0)" xlink:href="#ag"/><use transform="matrix(0.05,0,0,0.05,21.9,0)" xlink:href="#aB"/><use transform="matrix(0.05,0,0,0.05,36.85,0)" xlink:href="#ae"/><use transform="matrix(0.05,0,0,0.05,46.85,0)" xlink:href="#am"/><use transform="matrix(0.05,0,0,0.05,52.800000000000004,0)" xlink:href="#an"/></g><path fill="#666" d="M115-194c53 0 69 39 70 98 0 66-23 100-70 100C84 3 66-7 56-30L54 0H23l1-261h32v101c10-23 28-34 59-34zm-8 174c40 0 45-34 45-75 0-40-5-75-45-74-42 0-51 32-51 76 0 43 10 73 51 73" id="aC"/><g id="w"><use transform="matrix(0.05,0,0,0.05,0,0)" xlink:href="#ac"/><use transform="matrix(0.05,0,0,0.05,12,0)" xlink:href="#aa"/><use transform="matrix(0.05,0,0,0.05,17,0)" xlink:href="#ae"/><use transform="matrix(0.05,0,0,0.05,27,0)" xlink:href="#ah"/><use transform="matrix(0.05,0,0,0.05,37,0)" xlink:href="#aw"/><use transform="matrix(0.05,0,0,0.05,47,0)" xlink:href="#aC"/><use transform="matrix(0.05,0,0,0.05,57,0)" xlink:href="#an"/></g><path fill="#666" d="M0 4l72-265h28L28 4H0" id="aD"/><g id="x"><use transform="matrix(0.05,0,0,0.05,0,0)" xlink:href="#Y"/><use transform="matrix(0.05,0,0,0.05,12,0)" xlink:href="#ak"/><use transform="matrix(0.05,0,0,0.05,22,0)" xlink:href="#ak"/><use transform="matrix(0.05,0,0,0.05,32,0)" xlink:href="#af"/><use transform="matrix(0.05,0,0,0.05,35.95,0)" xlink:href="#ag"/><use transform="matrix(0.05,0,0,0.05,39.900000000000006,0)" xlink:href="#ah"/><use transform="matrix(0.05,0,0,0.05,49.900000000000006,0)" xlink:href="#ak"/><use transform="matrix(0.05,0,0,0.05,59.900000000000006,0)" xlink:href="#aD"/><use transform="matrix(0.05,0,0,0.05,64.9,0)" xlink:href="#af"/><use transform="matrix(0.05,0,0,0.05,68.85000000000001,0)" xlink:href="#ag"/><use transform="matrix(0.05,0,0,0.05,72.80000000000001,0)" xlink:href="#aC"/><use transform="matrix(0.05,0,0,0.05,82.80000000000001,0)" xlink:href="#ax"/><use transform="matrix(0.05,0,0,0.05,92.80000000000001,0)" xlink:href="#ab"/><use transform="matrix(0.05,0,0,0.05,102.80000000000001,0)" xlink:href="#ah"/><use transform="matrix(0.05,0,0,0.05,112.80000000000001,0)" xlink:href="#ak"/><use transform="matrix(0.05,0,0,0.05,122.80000000000001,0)" xlink:href="#an"/></g><g id="y"><use transform="matrix(0.05,0,0,0.05,0,0)" xlink:href="#aa"/><use transform="matrix(0.05,0,0,0.05,5,0)" xlink:href="#am"/><use transform="matrix(0.05,0,0,0.05,10.95,0)" xlink:href="#ae"/><use transform="matrix(0.05,0,0,0.05,20.95,0)" xlink:href="#ad"/><use transform="matrix(0.05,0,0,0.05,29.950000000000003,0)" xlink:href="#ak"/></g><g id="z"><use transform="matrix(0.05,0,0,0.05,0,0)" xlink:href="#aw"/><use transform="matrix(0.05,0,0,0.05,10,0)" xlink:href="#ae"/><use transform="matrix(0.05,0,0,0.05,20,0)" xlink:href="#aa"/><use transform="matrix(0.05,0,0,0.05,25,0)" xlink:href="#ae"/></g><path fill="#666" d="M140-251c81 0 123 46 123 126C263-46 219 4 140 4 59 4 17-45 17-125s42-126 123-126zm0 227c63 0 89-41 89-101s-29-99-89-99c-61 0-89 39-89 99S79-25 140-24" id="aE"/><path fill="#666" d="M127-220V0H93v-220H8v-28h204v28h-85" id="aF"/><g id="A"><use transform="matrix(0.05,0,0,0.05,0,0)" xlink:href="#aE"/><use transform="matrix(0.05,0,0,0.05,14,0)" xlink:href="#aF"/><use transform="matrix(0.05,0,0,0.05,24.950000000000003,0)" xlink:href="#X"/><use transform="matrix(0.05,0,0,0.05,34.95,0)" xlink:href="#aA"/></g><g id="B"><use transform="matrix(0.05,0,0,0.05,0,0)" xlink:href="#aa"/><use transform="matrix(0.05,0,0,0.05,5,0)" xlink:href="#am"/><use transform="matrix(0.05,0,0,0.05,10.95,0)" xlink:href="#ae"/><use transform="matrix(0.05,0,0,0.05,20.95,0)" xlink:href="#ad"/><use transform="matrix(0.05,0,0,0.05,29.950000000000003,0)" xlink:href="#ak"/></g></defs></g></svg>